# xmcd
#
# Track frame offsets: 
#        150
#        18760
#        37431
#        126829
#        127833
#
# Disc length: 1737 seconds
#
# Revision: 0
# Processed by: cddbd v1.5.2PL0 Copyright (c) Steve Scherf et al.
# Submitted via: ExactAudioCopy v0.99pb4
#
DISCID=3c06c705
DTITLE=Wojtek Klich i Bardzo Orkiestra - Wiosenna poezja
DYEAR=2000
DGENRE=blues
TTITLE0=Wiosenna poezja - wersja radiowa
TTITLE1=Wiosenna poezja demo
TTITLE2=Bardzo gadula wojtusia klicha
TTITLE3=Pozdrowienia dla sluchaczy
TTITLE4=Pozdrowienia spiewane
EXTD=
EXTT0=
EXTT1=
EXTT2=
EXTT3=
EXTT4=
PLAYORDER=
